<svg width="42" height="43" viewBox="0 0 42 43" xmlns="http://www.w3.org/2000/svg">
  <style>
    path,line { stroke: #222;fill: #222; }
    @media (prefers-color-scheme: dark) {
      path,line { stroke: #ffffff;fill: #ffffff; }
    }
  </style>
<line x1="20.9027" y1="42.2974" x2="20.9027" y2="17.2974"/>
<path d="M2.40271 17.2974L38.4027 17.2974"/>
<path d="M3.40271 42.2974H39.9027"/>
<path d="M24.3032 1.20689L1.09955 26.9309"/>
<path d="M41.0313 26.6349L17.4027 1.29737"/>
<path d="M14.3807 42V32.1818H15.8381V33.7159H15.9659C16.1705 33.1918 16.5007 32.7848 16.9567 32.495C17.4126 32.201 17.9602 32.054 18.5994 32.054C19.2472 32.054 19.7862 32.201 20.2166 32.495C20.6513 32.7848 20.9901 33.1918 21.233 33.7159H21.3352C21.5866 33.2088 21.9638 32.8061 22.4666 32.5078C22.9695 32.2053 23.5724 32.054 24.2756 32.054C25.1534 32.054 25.8714 32.3288 26.4297 32.8786C26.9879 33.424 27.267 34.2741 27.267 35.429V42H25.7585V35.429C25.7585 34.7045 25.5604 34.1868 25.1641 33.8757C24.7678 33.5646 24.3011 33.4091 23.7642 33.4091C23.0739 33.4091 22.5391 33.6179 22.1598 34.0355C21.7805 34.4489 21.5909 34.973 21.5909 35.608V42H20.0568V35.2756C20.0568 34.7173 19.8757 34.2678 19.5135 33.9268C19.1513 33.5817 18.6847 33.4091 18.1136 33.4091C17.7216 33.4091 17.3551 33.5135 17.0142 33.7223C16.6776 33.9311 16.4048 34.2209 16.196 34.5916C15.9915 34.9581 15.8892 35.3821 15.8892 35.8636V42H14.3807Z"/>
</svg>
